<svg width="4939" height="3098" xmlns="http://www.w3.org/2000/svg" xmlns:xlink="http://www.w3.org/1999/xlink" xml:space="preserve" overflow="hidden"><g transform="translate(-129 -906)"><rect x="132.5" y="909.5" width="4932" height="3091" stroke="#042433" stroke-width="6.875" stroke-miterlimit="8" fill="none"/><rect x="132.5" y="909.5" width="4932" height="3091" stroke="#042433" stroke-width="6.875" stroke-miterlimit="8" fill="none"/><path d="M1497.5 1883.5C1497.5 1847.6 1526.6 1818.5 1562.5 1818.5 1598.4 1818.5 1627.5 1847.6 1627.5 1883.5 1627.5 1919.4 1598.4 1948.5 1562.5 1948.5 1526.6 1948.5 1497.5 1919.4 1497.5 1883.5Z" stroke="#042433" stroke-width="6.875" stroke-miterlimit="8" fill="none" fill-rule="evenodd"/><path d="M3392.5 1882.5C3392.5 1846.6 3421.6 1817.5 3457.5 1817.5 3493.4 1817.5 3522.5 1846.6 3522.5 1882.5 3522.5 1918.4 3493.4 1947.5 3457.5 1947.5 3421.6 1947.5 3392.5 1918.4 3392.5 1882.5Z" stroke="#042433" stroke-width="6.875" stroke-miterlimit="8" fill="none" fill-rule="evenodd"/><path d="M1492.5 3810.5C1492.5 3774.6 1521.6 3745.5 1557.5 3745.5 1593.4 3745.5 1622.5 3774.6 1622.5 3810.5 1622.5 3846.4 1593.4 3875.5 1557.5 3875.5 1521.6 3875.5 1492.5 3846.4 1492.5 3810.5Z" stroke="#042433" stroke-width="6.875" stroke-miterlimit="8" fill="none" fill-rule="evenodd"/><path d="M3392.5 3810.5C3392.5 3774.6 3421.6 3745.5 3457.5 3745.5 3493.4 3745.5 3522.5 3774.6 3522.5 3810.5 3522.5 3846.4 3493.4 3875.5 3457.5 3875.5 3421.6 3875.5 3392.5 3846.4 3392.5 3810.5Z" stroke="#042433" stroke-width="6.875" stroke-miterlimit="8" fill="none" fill-rule="evenodd"/><path d="M4217.5 3053.5C4217.5 3017.6 4246.38 2988.5 4282 2988.5 4317.62 2988.5 4346.5 3017.6 4346.5 3053.5 4346.5 3089.4 4317.62 3118.5 4282 3118.5 4246.38 3118.5 4217.5 3089.4 4217.5 3053.5Z" stroke="#042433" stroke-width="6.875" stroke-miterlimit="8" fill="none" fill-rule="evenodd"/><text font-family="Aptos,Aptos_MSFontService,sans-serif" font-weight="400" font-size="73" transform="matrix(1 0 0 1 1515.92 1900)">S1</text><text font-family="Aptos,Aptos_MSFontService,sans-serif" font-weight="400" font-size="83" transform="matrix(1 0 0 1 3407.87 1909)">S2</text><text font-family="Aptos,Aptos_MSFontService,sans-serif" font-weight="400" font-size="83" transform="matrix(1 0 0 1 1513.09 3832)">S3</text><text font-family="Aptos,Aptos_MSFontService,sans-serif" font-weight="400" font-size="83" transform="matrix(1 0 0 1 3411.06 3840)">S4</text><text font-family="Aptos,Aptos_MSFontService,sans-serif" font-weight="400" font-size="83" transform="matrix(1 0 0 1 4227.16 3081)">S5</text><rect x="1458.5" y="1913.5" width="208" height="104" stroke="#000000" stroke-width="3.4375" stroke-linejoin="round" stroke-miterlimit="10" fill="none"/><text font-family="Aptos,Aptos_MSFontService,sans-serif" font-weight="400" font-size="55" transform="matrix(1 0 0 1 1518.12 1983)">LS1</text><rect x="3350.5" y="1914.5" width="208" height="104" stroke="#000000" stroke-width="3.4375" stroke-linejoin="round" stroke-miterlimit="10" fill="none"/><text font-family="Aptos,Aptos_MSFontService,sans-serif" font-weight="400" font-size="55" transform="matrix(1 0 0 1 3410.07 1984)">LS</text><text font-family="Aptos,Aptos_MSFontService,sans-serif" font-weight="400" font-size="55" transform="matrix(1 0 0 1 3468.51 1984)">2</text><rect x="1458.5" y="3666.5" width="208" height="104" stroke="#000000" stroke-width="3.4375" stroke-linejoin="round" stroke-miterlimit="10" fill="none"/><text font-family="Aptos,Aptos_MSFontService,sans-serif" font-weight="400" font-size="55" transform="matrix(1 0 0 1 1518.12 3736)">LS</text><text font-family="Aptos,Aptos_MSFontService,sans-serif" font-weight="400" font-size="55" transform="matrix(1 0 0 1 1576.56 3736)">3</text><rect x="3353.5" y="3666.5" width="208" height="104" stroke="#000000" stroke-width="3.4375" stroke-linejoin="round" stroke-miterlimit="10" fill="none"/><text font-family="Aptos,Aptos_MSFontService,sans-serif" font-weight="400" font-size="55" transform="matrix(1 0 0 1 3413.26 3736)">LS</text><text font-family="Aptos,Aptos_MSFontService,sans-serif" font-weight="400" font-size="55" transform="matrix(1 0 0 1 3471.7 3736)">4</text><rect x="4176.5" y="3079.5" width="208" height="104" stroke="#000000" stroke-width="3.4375" stroke-linejoin="round" stroke-miterlimit="10" fill="none"/><text font-family="Aptos,Aptos_MSFontService,sans-serif" font-weight="400" font-size="55" transform="matrix(1 0 0 1 4235.77 3149)">LS</text><text font-family="Aptos,Aptos_MSFontService,sans-serif" font-weight="400" font-size="55" transform="matrix(1 0 0 1 4294.21 3149)">5</text></g></svg>