<svg width="4939" height="3098" xmlns="http://www.w3.org/2000/svg" xmlns:xlink="http://www.w3.org/1999/xlink" xml:space="preserve" overflow="hidden"><g transform="translate(-129 -906)"><path d="M2599.5 2119C2599.5 2108.23 2608.23 2099.5 2619 2099.5 2629.77 2099.5 2638.5 2108.23 2638.5 2119 2638.5 2129.77 2629.77 2138.5 2619 2138.5 2608.23 2138.5 2599.5 2129.77 2599.5 2119Z" stroke="#042433" stroke-width="1.14583" stroke-miterlimit="8" fill="none" fill-rule="evenodd"/><text font-family="Arial Nova Cond Light,Arial Nova Cond Light_MSFontService,sans-serif" font-weight="300" font-stretch="condensed" font-size="18" transform="matrix(1 0 0 1 2614.23 2125)">1</text><path d="M2598.5 2395C2598.5 2384.23 2607.23 2375.5 2618 2375.5 2628.77 2375.5 2637.5 2384.23 2637.5 2395 2637.5 2405.77 2628.77 2414.5 2618 2414.5 2607.23 2414.5 2598.5 2405.77 2598.5 2395Z" stroke="#042433" stroke-width="1.14583" stroke-miterlimit="8" fill="none" fill-rule="evenodd"/><text font-family="Arial Nova Cond Light,Arial Nova Cond Light_MSFontService,sans-serif" font-weight="300" font-stretch="condensed" font-size="18" transform="matrix(1 0 0 1 2613.94 2401)">2</text><path d="M3207.5 3151C3207.5 3140.23 3216.23 3131.5 3227 3131.5 3237.77 3131.5 3246.5 3140.23 3246.5 3151 3246.5 3161.77 3237.77 3170.5 3227 3170.5 3216.23 3170.5 3207.5 3161.77 3207.5 3151Z" stroke="#042433" stroke-width="1.14583" stroke-miterlimit="8" fill="none" fill-rule="evenodd"/><text font-family="Arial Nova Cond Light,Arial Nova Cond Light_MSFontService,sans-serif" font-weight="300" font-stretch="condensed" font-size="18" transform="matrix(1 0 0 1 3222.9 3157)">3</text><path d="M2919.5 3207C2919.5 3196.23 2928.23 3187.5 2939 3187.5 2949.77 3187.5 2958.5 3196.23 2958.5 3207 2958.5 3217.77 2949.77 3226.5 2939 3226.5 2928.23 3226.5 2919.5 3217.77 2919.5 3207Z" stroke="#042433" stroke-width="1.14583" stroke-miterlimit="8" fill="none" fill-rule="evenodd"/><text font-family="Arial Nova Cond Light,Arial Nova Cond Light_MSFontService,sans-serif" font-weight="300" font-stretch="condensed" font-size="18" transform="matrix(1 0 0 1 2934.54 3213)">4</text><path d="M2373.5 2663C2373.5 2652.23 2382.23 2643.5 2393 2643.5 2403.77 2643.5 2412.5 2652.23 2412.5 2663 2412.5 2673.77 2403.77 2682.5 2393 2682.5 2382.23 2682.5 2373.5 2673.77 2373.5 2663Z" stroke="#042433" stroke-width="1.14583" stroke-miterlimit="8" fill="none" fill-rule="evenodd"/><text font-family="Arial Nova Cond Light,Arial Nova Cond Light_MSFontService,sans-serif" font-weight="300" font-stretch="condensed" font-size="18" transform="matrix(1 0 0 1 2388.48 2670)">5</text><path d="M1656.5 3807C1656.5 3796.23 1665.01 3787.5 1675.5 3787.5 1685.99 3787.5 1694.5 3796.23 1694.5 3807 1694.5 3817.77 1685.99 3826.5 1675.5 3826.5 1665.01 3826.5 1656.5 3817.77 1656.5 3807Z" stroke="#042433" stroke-width="1.14583" stroke-miterlimit="8" fill="none" fill-rule="evenodd"/><text font-family="Arial Nova Cond Light,Arial Nova Cond Light_MSFontService,sans-serif" font-weight="300" font-stretch="condensed" font-size="18" transform="matrix(1 0 0 1 1670.98 3814)">6</text><path d="M3667.5 1869C3667.5 1858.23 3676.23 1849.5 3687 1849.5 3697.77 1849.5 3706.5 1858.23 3706.5 1869 3706.5 1879.77 3697.77 1888.5 3687 1888.5 3676.23 1888.5 3667.5 1879.77 3667.5 1869Z" stroke="#042433" stroke-width="1.14583" stroke-miterlimit="8" fill="none" fill-rule="evenodd"/><text font-family="Arial Nova Cond Light,Arial Nova Cond Light_MSFontService,sans-serif" font-weight="300" font-stretch="condensed" font-size="18" transform="matrix(1 0 0 1 3682.6 1875)">7</text><path d="M3665.5 1923C3665.5 1912.23 3674.23 1903.5 3685 1903.5 3695.77 1903.5 3704.5 1912.23 3704.5 1923 3704.5 1933.77 3695.77 1942.5 3685 1942.5 3674.23 1942.5 3665.5 1933.77 3665.5 1923Z" stroke="#042433" stroke-width="1.14583" stroke-miterlimit="8" fill="none" fill-rule="evenodd"/><text font-family="Arial Nova Cond Light,Arial Nova Cond Light_MSFontService,sans-serif" font-weight="300" font-stretch="condensed" font-size="18" transform="matrix(1 0 0 1 3680.65 1930)">8</text><path d="M2344.5 1845C2344.5 1834.23 2353.23 1825.5 2364 1825.5 2374.77 1825.5 2383.5 1834.23 2383.5 1845 2383.5 1855.77 2374.77 1864.5 2364 1864.5 2353.23 1864.5 2344.5 1855.77 2344.5 1845Z" stroke="#042433" stroke-width="1.14583" stroke-miterlimit="8" fill="none" fill-rule="evenodd"/><text font-family="Arial Nova Cond Light,Arial Nova Cond Light_MSFontService,sans-serif" font-weight="300" font-stretch="condensed" font-size="18" transform="matrix(1 0 0 1 2359.6 1852)">9</text><path d="M1973.5 1847C1973.5 1836.23 1982.23 1827.5 1993 1827.5 2003.77 1827.5 2012.5 1836.23 2012.5 1847 2012.5 1857.77 2003.77 1866.5 1993 1866.5 1982.23 1866.5 1973.5 1857.77 1973.5 1847Z" stroke="#042433" stroke-width="1.14583" stroke-miterlimit="8" fill="none" fill-rule="evenodd"/><text font-family="Arial Nova Cond Light,Arial Nova Cond Light_MSFontService,sans-serif" font-weight="300" font-stretch="condensed" font-size="18" transform="matrix(1 0 0 1 1988.2 1842)">1</text><text font-family="Arial Nova Cond Light,Arial Nova Cond Light_MSFontService,sans-serif" font-weight="300" font-stretch="condensed" font-size="18" transform="matrix(1 0 0 1 1988.2 1864)">0</text><path d="M1081.5 1674C1081.5 1663.23 1090.23 1654.5 1101 1654.5 1111.77 1654.5 1120.5 1663.23 1120.5 1674 1120.5 1684.77 1111.77 1693.5 1101 1693.5 1090.23 1693.5 1081.5 1684.77 1081.5 1674Z" stroke="#042433" stroke-width="1.14583" stroke-miterlimit="8" fill="none" fill-rule="evenodd"/><text font-family="Arial Nova Cond Light,Arial Nova Cond Light_MSFontService,sans-serif" font-weight="300" font-stretch="condensed" font-size="18" transform="matrix(1 0 0 1 1096.33 1669)">1</text><text font-family="Arial Nova Cond Light,Arial Nova Cond Light_MSFontService,sans-serif" font-weight="300" font-stretch="condensed" font-size="18" transform="matrix(1 0 0 1 1096.33 1691)">1</text><path d="M4138.5 1398C4138.5 1387.23 4147.23 1378.5 4158 1378.5 4168.77 1378.5 4177.5 1387.23 4177.5 1398 4177.5 1408.77 4168.77 1417.5 4158 1417.5 4147.23 1417.5 4138.5 1408.77 4138.5 1398Z" stroke="#042433" stroke-width="1.14583" stroke-miterlimit="8" fill="none" fill-rule="evenodd"/><text font-family="Arial Nova Cond Light,Arial Nova Cond Light_MSFontService,sans-serif" font-weight="300" font-stretch="condensed" font-size="18" transform="matrix(1 0 0 1 4153.51 1394)">1</text><text font-family="Arial Nova Cond Light,Arial Nova Cond Light_MSFontService,sans-serif" font-weight="300" font-stretch="condensed" font-size="18" transform="matrix(1 0 0 1 4153.51 1416)">2</text><path d="M3667.5 3969C3667.5 3958.23 3676.23 3949.5 3687 3949.5 3697.77 3949.5 3706.5 3958.23 3706.5 3969 3706.5 3979.77 3697.77 3988.5 3687 3988.5 3676.23 3988.5 3667.5 3979.77 3667.5 3969Z" stroke="#042433" stroke-width="1.14583" stroke-miterlimit="8" fill="none" fill-rule="evenodd"/><text font-family="Arial Nova Cond Light,Arial Nova Cond Light_MSFontService,sans-serif" font-weight="300" font-stretch="condensed" font-size="18" transform="matrix(1 0 0 1 3682.56 3965)">1</text><text font-family="Arial Nova Cond Light,Arial Nova Cond Light_MSFontService,sans-serif" font-weight="300" font-stretch="condensed" font-size="18" transform="matrix(1 0 0 1 3682.56 3987)">3</text><path d="M2465.5 3287C2465.5 3276.23 2474.23 3267.5 2485 3267.5 2495.77 3267.5 2504.5 3276.23 2504.5 3287 2504.5 3297.77 2495.77 3306.5 2485 3306.5 2474.23 3306.5 2465.5 3297.77 2465.5 3287Z" stroke="#042433" stroke-width="1.14583" stroke-miterlimit="8" fill="none" fill-rule="evenodd"/><text font-family="Arial Nova Cond Light,Arial Nova Cond Light_MSFontService,sans-serif" font-weight="300" font-stretch="condensed" font-size="18" transform="matrix(1 0 0 1 2480.15 3283)">1</text><text font-family="Arial Nova Cond Light,Arial Nova Cond Light_MSFontService,sans-serif" font-weight="300" font-stretch="condensed" font-size="18" transform="matrix(1 0 0 1 2480.15 3305)">4</text><path d="M1548.5 2524C1548.5 2513.23 1557.23 2504.5 1568 2504.5 1578.77 2504.5 1587.5 2513.23 1587.5 2524 1587.5 2534.77 1578.77 2543.5 1568 2543.5 1557.23 2543.5 1548.5 2534.77 1548.5 2524Z" stroke="#042433" stroke-width="1.14583" stroke-miterlimit="8" fill="none" fill-rule="evenodd"/><text font-family="Arial Nova Cond Light,Arial Nova Cond Light_MSFontService,sans-serif" font-weight="300" font-stretch="condensed" font-size="18" transform="matrix(1 0 0 1 1563.95 2520)">1</text><text font-family="Arial Nova Cond Light,Arial Nova Cond Light_MSFontService,sans-serif" font-weight="300" font-stretch="condensed" font-size="18" transform="matrix(1 0 0 1 1563.95 2542)">5</text><path d="M3463.5 1973C3463.5 1962.23 3472.23 1953.5 3483 1953.5 3493.77 1953.5 3502.5 1962.23 3502.5 1973 3502.5 1983.77 3493.77 1992.5 3483 1992.5 3472.23 1992.5 3463.5 1983.77 3463.5 1973Z" stroke="#042433" stroke-width="1.14583" stroke-miterlimit="8" fill="none" fill-rule="evenodd"/><text font-family="Arial Nova Cond Light,Arial Nova Cond Light_MSFontService,sans-serif" font-weight="300" font-stretch="condensed" font-size="18" transform="matrix(1 0 0 1 3478.61 1968)">1</text><text font-family="Arial Nova Cond Light,Arial Nova Cond Light_MSFontService,sans-serif" font-weight="300" font-stretch="condensed" font-size="18" transform="matrix(1 0 0 1 3478.61 1990)">6</text><path d="M3460.5 3268C3460.5 3257.23 3469.23 3248.5 3480 3248.5 3490.77 3248.5 3499.5 3257.23 3499.5 3268 3499.5 3278.77 3490.77 3287.5 3480 3287.5 3469.23 3287.5 3460.5 3278.77 3460.5 3268Z" stroke="#042433" stroke-width="1.14583" stroke-miterlimit="8" fill="none" fill-rule="evenodd"/><text font-family="Arial Nova Cond Light,Arial Nova Cond Light_MSFontService,sans-serif" font-weight="300" font-stretch="condensed" font-size="18" transform="matrix(1 0 0 1 3475.09 3264)">1</text><text font-family="Arial Nova Cond Light,Arial Nova Cond Light_MSFontService,sans-serif" font-weight="300" font-stretch="condensed" font-size="18" transform="matrix(1 0 0 1 3475.09 3286)">7</text><rect x="3999.5" y="3242.5" width="650" height="366" stroke="#000000" stroke-width="3.4375" stroke-linejoin="round" stroke-miterlimit="10" fill="none"/><text font-family="Aptos,Aptos_MSFontService,sans-serif" font-weight="400" font-size="92" transform="matrix(1 0 0 1 4256.5 3345)">DM</text><path d="M4329.5 1887C4329.5 1876.23 4338.23 1867.5 4349 1867.5 4359.77 1867.5 4368.5 1876.23 4368.5 1887 4368.5 1897.77 4359.77 1906.5 4349 1906.5 4338.23 1906.5 4329.5 1897.77 4329.5 1887Z" stroke="#042433" stroke-width="1.14583" stroke-miterlimit="8" fill="none" fill-rule="evenodd"/><text font-family="Arial Nova Cond Light,Arial Nova Cond Light_MSFontService,sans-serif" font-weight="300" font-stretch="condensed" font-size="18" transform="matrix(1 0 0 1 4344.86 1882)">1</text><text font-family="Arial Nova Cond Light,Arial Nova Cond Light_MSFontService,sans-serif" font-weight="300" font-stretch="condensed" font-size="18" transform="matrix(1 0 0 1 4344.86 1904)">8</text><rect x="132.5" y="909.5" width="4932" height="3091" stroke="#042433" stroke-width="6.875" stroke-miterlimit="8" fill="none"/></g></svg>