<svg width="4939" height="3107" xmlns="http://www.w3.org/2000/svg" xmlns:xlink="http://www.w3.org/1999/xlink" xml:space="preserve" overflow="hidden"><g transform="translate(-129 -906)"><path d="M467.5 3301C467.5 3175.36 569.131 3073.5 694.5 3073.5 819.869 3073.5 921.5 3175.36 921.5 3301 921.5 3426.64 819.869 3528.5 694.5 3528.5 569.131 3528.5 467.5 3426.64 467.5 3301Z" stroke="#042433" stroke-width="6.875" stroke-miterlimit="8" fill="none" fill-rule="evenodd"/><text font-family="Aptos,Aptos_MSFontService,sans-serif" font-weight="400" font-size="165" transform="matrix(1 0 0 1 584.553 3354)">M1</text><rect x="402.5" y="3504.5" width="584" height="325" stroke="#000000" stroke-width="3.4375" stroke-linejoin="round" stroke-miterlimit="10" fill="none"/><text font-family="Aptos,Aptos_MSFontService,sans-serif" font-weight="400" font-size="128" transform="matrix(1 0 0 1 561.923 3707)">QM1</text><rect x="132.5" y="909.5" width="4932" height="3091" stroke="#042433" stroke-width="6.875" stroke-miterlimit="8" fill="none"/><rect x="533.5" y="3831.5" width="325" height="144" stroke="#000000" stroke-width="3.4375" stroke-linejoin="round" stroke-miterlimit="10" fill="none"/><text font-family="Aptos,Aptos_MSFontService,sans-serif" font-weight="400" font-size="92" transform="matrix(1 0 0 1 612.331 3933)">LM1</text></g></svg>