<svg width="4939" height="3098" xmlns="http://www.w3.org/2000/svg" xmlns:xlink="http://www.w3.org/1999/xlink" xml:space="preserve" overflow="hidden"><g transform="translate(-129 -906)"><rect x="132.5" y="909.5" width="4932" height="3091" stroke="#042433" stroke-width="6.875" stroke-miterlimit="8" fill="none"/><path d="M1104.5 1582.5C1104.5 1510.7 1162.7 1452.5 1234.5 1452.5 1306.3 1452.5 1364.5 1510.7 1364.5 1582.5 1364.5 1654.3 1306.3 1712.5 1234.5 1712.5 1162.7 1712.5 1104.5 1654.3 1104.5 1582.5Z" stroke="#042433" stroke-width="6.875" stroke-miterlimit="8" fill="none" fill-rule="evenodd"/><path d="M3667.5 3849C3667.5 3777.48 3725.7 3719.5 3797.5 3719.5 3869.3 3719.5 3927.5 3777.48 3927.5 3849 3927.5 3920.52 3869.3 3978.5 3797.5 3978.5 3725.7 3978.5 3667.5 3920.52 3667.5 3849Z" stroke="#042433" stroke-width="6.875" stroke-miterlimit="8" fill="none" fill-rule="evenodd"/><path d="M4158.5 1302.5C4158.5 1230.7 4216.48 1172.5 4288 1172.5 4359.52 1172.5 4417.5 1230.7 4417.5 1302.5 4417.5 1374.3 4359.52 1432.5 4288 1432.5 4216.48 1432.5 4158.5 1374.3 4158.5 1302.5Z" stroke="#042433" stroke-width="6.875" stroke-miterlimit="8" fill="none" fill-rule="evenodd"/><text font-family="Aptos,Aptos_MSFontService,sans-serif" font-weight="400" font-size="83" transform="matrix(1 0 0 1 1182.07 1607)">C</text><text font-family="Aptos,Aptos_MSFontService,sans-serif" font-weight="400" font-size="83" transform="matrix(1 0 0 1 1239.36 1607)">1</text><text font-family="Aptos,Aptos_MSFontService,sans-serif" font-weight="400" font-size="83" transform="matrix(1 0 0 1 4235.92 1328)">C</text><text font-family="Aptos,Aptos_MSFontService,sans-serif" font-weight="400" font-size="83" transform="matrix(1 0 0 1 4293.21 1328)">2</text><text font-family="Aptos,Aptos_MSFontService,sans-serif" font-weight="400" font-size="83" transform="matrix(1 0 0 1 3745.73 3882)">C</text><text font-family="Aptos,Aptos_MSFontService,sans-serif" font-weight="400" font-size="83" transform="matrix(1 0 0 1 3803.02 3882)">3</text></g></svg>