<svg xmlns="http://www.w3.org/2000/svg" fill="none" viewBox="41 37 46 56"><g id="solar-panel-battery-charging__solar-panel-battery-charging" clip-path="url(#solar-panel-battery-charging__clip0_3086_22638)"><g id="solar-panel-battery-charging__Mask group"><mask id="solar-panel-battery-charging__mask0_3086_22638" width="128" height="128" x="0" y="0" maskUnits="userSpaceOnUse" style="mask-type:alpha"><path id="solar-panel-battery-charging__Battery Mask" fill="#000" fill-rule="evenodd" d="M128 128H0V0h128zM78 67a3.99 3.99 0 0 0-2.692 1.042A6 6 0 0 0 70 74v12a6 6 0 0 0 6 6h6a6 6 0 0 0 6-6V74c0-3.08-2.32-5.615-5.309-5.958A3.98 3.98 0 0 0 80 67z" clip-rule="evenodd"/></mask><g mask="url(#solar-panel-battery-charging__mask0_3086_22638)"><g id="solar-panel-battery-charging__Solar Panel"><rect id="solar-panel-battery-charging__Panel" width="35" height="49" x="43.5" y="39.5" fill="url(#solar-panel-battery-charging__paint0_linear_3086_22638)" stroke="#212a3b" rx="5.5"/><path id="solar-panel-battery-charging__Lines" fill="#304878" d="M61.5 40v14.5H78v1H61.5v16H78v1H61.5V88h-1V72.5H44v-1h16.5v-16H44v-1h16.5V40z"/></g></g></g><g id="solar-panel-battery-charging__Battery"><g id="solar-panel-battery-charging__Shell"><path fill="#16a34a" d="M82 88v1h-6v-1zm2-2V74a2 2 0 0 0-2-2h-6a2 2 0 0 0-2 2v12a2 2 0 0 0 2 2v1a3 3 0 0 1-2.996-2.846L73 86V74a3 3 0 0 1 3-3h6a3 3 0 0 1 3 3v12l-.004.154A3 3 0 0 1 82 89v-1a2 2 0 0 0 2-2M77 71a1 1 0 0 1 1-1h2a1 1 0 0 1 1 1z"/></g><path id="solar-panel-battery-charging__Level" fill="#16a34a" fill-rule="evenodd" d="M82 73a1 1 0 0 1 1 1v12a1 1 0 0 1-1 1h-6a1 1 0 0 1-1-1V74a1 1 0 0 1 1-1zm-6 7.91h2L77 85l5-5.728h-3L81 76h-3z" clip-rule="evenodd"><animate attributeName="opacity" begin="0s" calcMode="spline" dur="2s" keySplines=".42 0 .58 1; .42 0 .58 1" repeatCount="indefinite" values="0.5;1;0.5"/></path></g></g><defs><linearGradient id="solar-panel-battery-charging__paint0_linear_3086_22638" x1="61" x2="61" y1="39" y2="89" gradientUnits="userSpaceOnUse"><stop stop-color="#304878"/><stop offset="1" stop-color="#212a3b"/></linearGradient><clipPath id="solar-panel-battery-charging__clip0_3086_22638"><rect width="128" height="128" fill="#fff"/></clipPath></defs></svg>